<?xml version="1.0" encoding="utf-8"?>
<!-- Generator: Adobe Illustrator 23.0.3, SVG Export Plug-In . SVG Version: 6.00 Build 0)  -->
<svg version="1.1" id="Calque_1" xmlns="http://www.w3.org/2000/svg" xmlns:xlink="http://www.w3.org/1999/xlink" x="0px" y="0px"
	 viewBox="0 0 500 500" style="enable-background:new 0 0 500 500;" xml:space="preserve">
<style type="text/css">
	.st0{fill:#FFFFFF;}
</style>
<g>
	<path class="st0" d="M190.2,106.9h-0.1c0,0.1-0.1,0.1-0.1,0.2L190.2,106.9L190.2,106.9z"/>
	<path class="st0" d="M431.7,251.3c1.1-14.2,0.6-16-13.3-18.9c-4.5-0.9-5.9-2.9-5.6-7c0.6-7.6,1.3-15.3,1.8-22.9
		c1.6-23.5-1.6-45.8-16.5-65.2c-2.2-2.9-2.1-5.3-0.6-8.8c3.8-9.3,11-16.5,14.6-25.9c8.6-22.1,12.5-45.1,14.1-68.6
		c0.5-7.8,0.5-15.8-1.3-23.5c-1-4.4-3.3-8.3-8.2-8.1c-5.2,0.2-6.1,5.3-6.1,8.8c-0.1,8.7-2.3,16.9-4.5,25.1c-6,22.8-14.5,44.4-31,62
		c-8.4,9.1-8.4,8.8-19,2.8C320.3,81.3,282.3,74.3,242,82c-9.6,1.8-18.6,5.8-27.7,9.3c-9,3.5-17.2,8.8-24.1,15.6
		c2.9,0.4,5.7,0.4,8.3-1.3c0.7,6.3,3.4,4.3,5.9,1.2c4.4-5.8,9.7-10.4,16.3-13.7c5.2-2.6,11-3.6,16.8-3.1c1.8,0.2,3,0.2,4.4-0.8
		c3.3-2.3,5.9-2.1,7.7,2.1c1.7,3.9,4.6,3.9,7,0.9c3.2-4,5.8-3.3,8,0.6c3,5.1,7.7,8.1,12.5,10.7c11,6,22.5,10.9,33.5,16.8
		s21,13.8,25.5,26.5c0.3,0.6,0.6,1.6,0.4,2c-6,10.8,2.8,20.8,1.6,31.8c-1.2,11.1,1.9,22.6,5.6,33.3c2.8,8.1,2.1,16.9,5.9,24.8
		c2,4.4,4.5,8.6,8.1,11c5,3.3,7.9,7.1,8,13.1c0,2.6,2,3.5,4.5,2.8c2.3-0.7,3.8-0.1,5.5,1.6c2.9,3.2,5,2.8,5.5-1.9
		c0.3-2.2,0.1-4.8,2.9-6.4c3.8,4.8,9.6,8.7,4,16.1c-2,2.8-0.6,4.8,3,4.9c3,0,6,0,9,0c2.8,0,4.3-1.4,4.3-4.3c0-4.9,3.1-8,6.1-11.3
		c1.2-1.3,2.1-2.6,4-1.5c1.6,1,1.5,2.8,1,4.4c-1.8,4.9-2.6,10.2-6.4,14c2.7,2.4,4.5-0.7,7,0.5c-1.8,5.1-4.5,8.2-10.4,6.5
		c-4.1-1.2-6.5,0.1-7.6,4.5c-0.8,2.8-2.6,5.4-4.2,7.9c-5.5,8.9-4,13.9,5.4,18c1.3,0.5,2.3,1.6,2.7,2.9c-2.3,0.3-4.5,0.5-6.8,0.9
		c-5.7,1-9,6.6-6.3,11.8c1.8,3.4,1.3,5.9-0.4,8.3c-4.1,5.9-4.6,13.5-9.3,19.1c-0.3,0.4-0.5,0.8-0.5,1.3c1.9,11.5-5.5,20-9.6,29.6
		c-1.7,3.9-3.5,7.3-7.4,9.6c-3.1,1.9-2.3,5.7-2.5,9.1c9.4,1.6,9.7-12,20-11.1c-5.8,8.9-13.4,14.3-19.9,20.6c-3.4,3.3-6.5,7.4-11.8,8
		c-0.3-1.3,0-3.9-1.3-3c-2.8,1.8-7-2.5-8.5,2.3c-4.5,13.3-17,17.8-27.6,23.8c-3.6,2.1-9.5,0.9-14.3,0.2c-3.4-0.5-1.5-3.2-0.6-5
		c5-10.4,10.2-20.8,15.3-31.1c0.6-1.3,1-2.5,2-4.9c-6.2,3.1-8.4,8-11,12.6c-2.1,3.6-3.6,7.5-5.9,11c-6.3,9.5-14.5,12.1-25.3,8.5
		c-6.7-2.3-13-6.4-20.6-4.3c-1.6,0.5-2.6-1.1-3.9-2.1c-5.6-4.6-11.9-6.8-19.3-4.1c-9.6,3.5-16.6-1.4-16-11.5c0.1-2.7-2.6-8,2.3-7.9
		c4.1,0.1,2.3,5.6,1.9,8.3c-0.8,5.4,0.5,7,5.9,6.2c13.5-2,26.3,1.1,38.7,6.3c4.5,1.9,9.4,2.4,14.1,3.4c9.1,1.9,16.9-1.2,21.7-8.9
		c9.9-15.5,22.7-28.6,33.3-43.5c4.5-6.4,9.7-13,9.5-21.9c-0.4-14.3-8.6-20.5-22.1-15.8c-5,1.7-10.6,4-13.8,7.8
		c-13.6,16.6-33.6,20.2-52.3,26.6c-3.2,1.1-6.9,1.2-10.1,4c3.3,2.6,6.6,4.9,7.5,9.3c0.8,3.5,3,3,4.9,0.7c1.2-1.4,2.7-2.9,3.1-4.5
		c0.9-3.1,2.3-5,5.7-4.5c3.8,0.6,6.7,3.8,6,6.6c-2.3,9.6,4.1,10.2,10.5,11.5c0.6,0.2,1.3,0.5,1.9,0.9c0.2,0.1,0.3,0.4,0.7,1.1
		c-6.8,4.3-4.6,12.1-7,18.9c-3.4-1.5-3.1-3.9-2.8-6.5c0.5-2.8,0.8-5.5,0.9-8.3c0-1.5,0.1-3.6-2.1-3.8c-1.9,0-4.9-0.4-5,2.4
		c-0.2,3.6-2.7,4.6-5.1,5.8c-2,1-3.4,2-3.6,4.5c-0.1,1.5,1.4,4.1-1.9,4.3c-1.9,0.1-3.8-1.1-4.3-3c-2.3-7.3-8.6-12.6-9.5-20.4
		c-0.6-5.4-6.9-6.5-7.5-13.1c-1.8,4.1-5.1,5.5-5.4,9.4c-0.4,4.4-4.4,3.1-7.1,3.4c-0.5,0-1.7-1.3-1.6-1.9c0.1-2.6,1.6,0.4,2.1-0.4
		c2.4-3.3,0.9-5.1-2-7.1c-3.7-2.6-7.1-5.3-7.6-11c-0.2-3.1,2.5-3.5,2.6-6c0.8,3.6,2.8,5.2,6.3,4.5c3.4-0.8,2.9-3.2,3.1-5.9
		c0.3-4.6,1-9.1,2.1-13.6c0.9-3.6,1.7-7.7,6.7-8.7c2.3-0.5,3.7-2.6,4.4-5c-1.9-1.5-3.4,1-5.3,0.5c-7.1,7.2-16.3,6.5-21.9-1.6
		c-1.6-2.3-2.9-4.7-4.4-7v0c-4.8-5.2-11.1-4.8-17.3-4.1c-6.6,0.6-12.3-0.1-16.7-5.5c-3.8-4.6-4.1-18.8-0.3-23.3
		c1.1-1.3,2.4-2.5,1.4-4.3c-1-1.9-3-1.5-4.3-0.8c-2.6,1.5-4.3,0.2-6.4-0.9c-4.4-2.3-7.1-0.2-8.4,4.4c-2.6,9.5,1.4,15.4,8.4,21
		c4.1,3.3,7.3,8.2,6.6,14.3l0,0c-0.7-1.8-1.8-3.7-3.7-1.9c-1.6,1.5,0.5,2.5,1.6,3.5l0,0l6.5,6c-4.8,0.5-9.4,2-13.6,4.2
		c-0.9-5-3.8-9.4-0.4-14c2.1-3.1-0.1-5.1-1.9-6.4c-5.3-3.6-8.5-9.1-12.6-13.9c-5.1-5.9-3.5-13-2.1-20c0.3-1.4,1.1-2.5,1.5-3.9
		c1-2.8,1.2-6.6,4.4-7.4c3.6-0.9,4.6,3,6.3,5.4c2.3,3,6.1,2.4,8.9,2c9.9-1.4,18.4,2.4,27.1,6.4c2.1,1,4.5,1.5,3.9,5
		c-2.9,1.4-8.9-4.2-9.2,3.8c-0.1,2.9,0.3,4,3.4,2.8c4.6-1.9,10.1-1.2,14.1-4.9c1.1-1,2.9-1.6,4.8-0.3c-0.8,2-1.9,3.9-3.4,5.4
		c-1.5,1.6-1.1,4.3,0.6,5.5c1.5,1.1,2.9-0.6,3.9-2c4.4-6.4,10.1-12.4,12.6-19.4c2.9-7.9,3.4-16.7,4.1-25.2c0.8-8,1-16.1,0.8-24.3
		c-0.1-6.1-5-10.9-5.2-17.4c-0.1-3.5,0.6-7.4-1.4-10.9c-3.9,1.8-3.3,5.7-4.8,8.2c-1.4,0.9-2.5,0.1-3.2-0.6c-5.5-5.6-5.3-5.6-9.8,1.5
		c-3.4,5.4-7.1,10.7-11,15.7c-1.8,2.1-4.2,3.7-6.9,4.6c-12.4,3.8-25.1,6-38.3,4c-5.1-0.8-5.9-3.5-3.9-7.2c4.9-8.9,5.9-18.4,5.6-28.3
		c-0.1-2.4,0.5-4.6,1.8-6.6c0.4-0.6,4.3-4-1.4-3.4c-1.4,0.1-0.5-3.7,0.8-4.3c2.6-1.1,6.3-1.1,2.8-5.3c5.1-3.9,3.3-9.6,3.6-14.6
		c0.4-5,2.1-9.8,5-13.9c3.6-5.1,5-10.7,7.1-16.2c0.1-0.2-0.1-0.6,0-0.6c8.8-3.9,5.8-12.9,8.4-19.4c1.9-4.6,0.6-10.4,5.9-13.5
		c4.1-2.2,8.8-3.8,10.4-8.9c-4.4,1.7-8.5,3.9-11.2,8.1c-1.6,0.9-3.5,1.4-4.8,2.7c-3.6,3.7-7.2,3.1-11.2,0.6
		c-11.6-7.2-22.4-15.6-32.3-25c-5.9-5.6-12.1-11-16.8-17.4c-13.3-18.1-26-36.7-36.1-56.8c-1.3-2.6-2.4-6.3-6.4-4.9
		C68,15.6,68,19,68.4,22.1c0.9,6.9,2.7,13.5,4.9,20.1c8.2,24.3,18.7,47.3,33.8,68.1c10.3,14.1,22.1,26.9,34.6,39
		c2.4,2.4,4.6,4.6,3.4,8.4c-6.5,18.3-5.5,36.9-2.7,55.6c1.3,8.6,1,17.1-3.4,25.1c-1.6,2.7-3.1,4.6-7,4.4c-5.1-0.3-8.3,2.9-8.3,8.1
		c0.1,10.2-0.9,20.8,4.2,30c5.1,9.3,5.3,18.9,4.6,29c-0.6,9-3,17.9-1,27c1.6,7.7,5.6,11.2,12.7,11.2c9.5,0,10.1,0.1,9.5,9.9
		c-0.9,12.9,2.6,24.1,9.8,34.7c4.8,7.1,7.4,15.4,10.2,23.5c5.4,15.8,8.1,32.3,11.1,48.7c4.3,23.6,13.2,30.5,35.6,32.3
		c10.1,0.9,20.4-0.3,30.6,0.1c13.9,0.5,25.1-5.5,35.5-13.6c11.3-8.8,21.9-18.4,33.5-26.6c21.8-15.4,43.8-30.4,63.6-48.3
		c7.8-7,12-15.9,11.9-26.5c-0.1-6-0.6-12-1-18c-0.3-4.6,0.5-8.9,4.3-12c3.4-2.9,6.9-5.5,10.5-8c13.6-8.9,15.9-14.5,11.1-30.2
		c-3-9.8-2.8-19.4,2-28.4C427.7,274.9,430.8,263.6,431.7,251.3z M339.8,138.3c-5.3-4.5-9.8-9.9-13.2-16l0,0.1
		c2.4,1.8,4.8,3.7,7.3,5.3c1.9,1.3,3.6,3.7,6.3,1.9C338.5,132.2,341.7,135,339.8,138.3z M342.4,157.9L342.4,157.9L342.4,157.9
		c0.9,2.4,1.5,4.8,0.3,7.5C340.1,162.9,341.6,160.4,342.4,157.9L342.4,157.9z M344.4,189.4L344.4,189.4c-0.8-5.2-3.5-10.3-0.8-15.8
		C345.3,178.8,345.3,184,344.4,189.4z M340.6,129.1c1.1-3.6,2.1-7.4,8.4-4.6C345.1,125.3,347.2,133.7,340.6,129.1z M353.2,231
		L353.2,231c3.6,3.3,8.3,5.7,9.3,11.4C356.6,241.1,354.3,236.6,353.2,231z M368.6,230.4c-9.7-1.7-19.3-18.7-19-34.1
		c3,2.5,1.7,6.9,5,8.8c2.3-1.4-0.3-3.4,0.4-4.9c1.1-2.2,2-6,5.1-1.5c7.5,4.3,4,12.1,4.7,18c0.3,3-0.6,5.7,2.1,8.1
		C368.5,226.2,369.2,228.3,368.6,230.4z M286.7,414.8c3.2,2.4,2,4.5,0,6.8V414.8z M282.7,382.6L282.7,382.6c1.5,1.2,2,1.5,2.1,1.8
		c0.5,3.4,1.8,6.8-0.5,10c-0.5,0.6-1.4,0.8-2,0.3c-0.1-0.1-0.3-0.3-0.4-0.4C279.3,390.4,280.9,387,282.7,382.6z M230.8,405.3
		c0.3-1.4,1.6-2.4,3.1-2.3c1.1,0,1.6,0.8,1.1,1.9c-0.6,1.3-1.1,2.7-1.5,2.6C230.8,407.2,230.6,406.3,230.8,405.3z M228.7,416
		c0.4-3.5,2.5-4,6.1-2.8c-1.9,2-0.4,6-4.3,6.1C229.2,419.4,228.6,417.4,228.7,416z M185.8,256c1.6-1,2.4-1.6,3.4-2.2
		c7.9-4.6,9.1-4.1,12.3,4.3c0.9,2.6,1.9,4.8,4.4,6.8c3.6,2.9,3.2,6.4-0.9,9c-5.9,3.6-11.8,7.2-19.9,8
		C191.9,273.3,198.3,264.8,185.8,256z M153.7,260.7c3.6,4.1,1.5,9.2,3.2,13.6C151.9,270.7,152.7,265.6,153.7,260.7z M137.4,126.6
		c-3.8-2.1-2.5-6.9-5.6-9.6c-11.8-9.9-21.8-21.4-27.9-36c3.3-0.6,5.7,1.9,6.1,3.1c2.7,7.7,10.9,9.4,15.3,15.1c2,2.6,5.5,4.1,4.9,8.4
		c-0.3,2.3,2.5,3.3,4.1,4.3c7.1,4.7,12.6,11.2,19.6,15.9c3.7,2.5,5.4,8,11.9,7.6c-3.6,4.5-5.6,9.3-10.9,13.3
		c0.6-5.6,0.4-9.1-4.6-12.1C145.7,134,142.3,129.2,137.4,126.6z M137.2,251.7c11.3,4.1,8.1,15.9,12.5,23.4c-3.3-0.3-3.6-0.2-4.4-3.4
		c-1.6-5.8-3.9-11-8.1-15.4C135.4,254.7,136,253.2,137.2,251.7z M205.4,389.7c3,1.5,5.6,3.9,7.3,6.8c1.1,1.8,2.4,3.5,1.3,5.8
		c-0.7,1.5-2.1,1.8-3.6,1.4c-2.4-0.7-5.3-0.8-6-4C203.8,396.5,203.2,393.3,205.4,389.7z M201.3,418.8c0.1-0.6,0.6-1.1,0.9-1.6
		c1.6,3.9,3.4,8.5-1.8,10c-4.9,1.4-8.9-0.5-10.1-6.4c-0.8-3.8-1.4-7.8-3.4-11.3c-0.7-1.1-1.4-2.6,0.1-3.8c1.6-1.4,2.9,0,4.4,0.8
		c2.7,1.5,3.6,4,3.9,7c0.1,1.9,0.4,3.7,0.9,5.5c0.4,1.8,0.7,4.2,2.9,4.1C201.7,423.1,200.9,420.5,201.3,418.8z M197.8,392.7
		c-3.1-1.4-5.3-3.8-8.1-4.5C193.3,387.5,198.6,383.8,197.8,392.7z M168,393c-7.5-7.6-12.3-16.4-11.1-29.5c3.7,7.4,7.8,12.6,9.1,19.3
		c0.6,3,1.6,5.7,4.6,7.1c0.2,2,3.1,0.9,3.5,2.8C172,394.4,170,395.1,168,393z M170.7,389.9c-1.4-6.9-2.8-13.9-4.1-20.8
		c-0.9-4.4-1.9-8.9,3.4-13.2c0.1,9.5,5.8,16.3,6.6,24.5C177.1,385,176,388.8,170.7,389.9z M180.4,340.2c2.6-0.7,3.7,1.8,4.6,4.3
		c2.6,7,4.7,14.1,8.7,20.5c1.4,2.4,0.5,4.8-1.7,6c-3,1.6-2.9,3.7-1.6,6.8c-6.7-1.5-9.1-5-8.6-10.7c0.6-7.1-1.4-13.8-3.6-20.4
		C177.3,343.7,177.5,341,180.4,340.2z M184.2,437.8c-3.6-3.1-4.2-7.5-4.5-11.9c-0.1-1.9,0.5-4.1,3-3.6c4.3,1-0.1,2.4-0.1,3.6
		c-0.1,3.8,2.4,7.8,8.6,12.1C188.2,441,186.2,439.5,184.2,437.8z M194.8,454.7c-5.7-2.5-4.5-8.1-6.6-12
		C191,446.2,195.9,448.5,194.8,454.7z M246.7,486.7c-8.8-3.3-18.4-4.4-26.8-9c-6.8-3.7-10.8,2.5-15.8,5c-2.4,1.1-4.4,4.1-7.3,1.9
		s-6.1-4.5-4.4-9.1c0.4-1,0.1-2.3,0.4-3.5c0.7-2.8-2.1-7.6,1.1-8.1c3.6-0.5,8,1.6,10.9,4.8c4.3,4.6,7.7,4.1,10.1-1.7
		c1.9-4.7,4-9.4,5.8-14.1c2.6-7,7.4-6.9,12.8-5.6c7.6,1.8,15.1,3.5,22.1,7l0.1-0.1c1,2.5,2.6,2,5,2c3.5,0,7.4-2.3,11.5,1.3
		c-4,1.1-6.3,3.5-6.8,7.4c-0.6,4.5-4.6,4.7-7.6,4.3c-6.8-0.9-13.8-1.9-19.2-7c-2.1-2-4.3-3.6-7.2-3.8c-2-0.1-4.4-1-5.6,1.4
		c-1.1,2.3,0.5,4,1.8,5.5c10.5,13,28.1,17.1,43.7,10.2c4-1.8,7.8-4.6,13-4.1C277.8,481.8,264.6,493.4,246.7,486.7z M403.2,305.2
		c1,1.3,3.2,2,2.6,4.1c-0.1,0.6-2.1,1.4-2.9,1C399.3,308.6,403.1,307,403.2,305.2z M400.1,334c-1.5,0.1-3-0.1-2.9-1.9
		c0-2,1.6-2.5,3.4-2.4c1.3,0.1,3.1,0,3,1.8C403.5,333.4,401.6,333.7,400.1,334z M406.8,319.7C406.8,319.7,406.8,319.7,406.8,319.7
		L406.8,319.7c-0.3,0.4-1.3,0.7-1.5,0.5c-0.4-0.5-0.6-1-0.5-1.7c0-0.6,0.5-1.1,1.5-0.9C406.9,318.1,407.2,319,406.8,319.7z
		 M420.1,244.2L420.1,244.2c-11.4-0.9-18.3,5.9-24.9,15.5c0.3-11.2,8-15.4,13.8-20.9c3.3-3.1,8-0.2,12-1.2c1.4-0.4,1.9,1.6,1.6,3.1
		C422.4,242.3,422.1,244.4,420.1,244.2z"/>
	<path class="st0" d="M350.9,269.3c-3.5-2-6.5-1.5-9.2,1.7c-2,2.4-5.2,3.7-8.1,2.1c-3.1-1.7-0.9-4.6-0.4-6.9c1-4.4,1.8-8.8,5.5-12.3
		c3.5-3.4,1.4-8.5-3.5-8.1c-10,0.9-19.8-1.3-29.8-0.8c-26.4,1.4-51.4-1.8-69.6-24.2c-2.4-2.9-5.7-5.6-11.4-1.9
		c8.9,4.9,12.4,13.1,15.1,21.6c0.4,1.4,4.8,0,2.3,3.4c-2.4,3.1-1.4,6.6-0.9,10c-0.7,0.6-1.6,1.3-0.6,2.1s1.5,0,1.8-0.9
		c2.1,7.4-0.6,15.7,4.4,23c-2.1,0.9-5.6-1-5.6,2.8c0,1.3-1.3,3,0.6,3.6c6.7,2.3,10.1,8.6,13.6,13.4c3.9,5.4,6.4,4.6,11,2.5
		c10.3-4.6,20.2-10.2,31.5-12.1c18.1-3.1,35.9-7.6,53.1-14.3c1.1-0.4,2.3-0.8,2.4-2.2C353,270.3,351.9,269.9,350.9,269.3z
		 M301.5,274c-4.7,3.5-10.3,5-16,5.4c-3.5,0.2-4.2-2.1-2-4.4l0,0c5.7-5.6,6.4-12.4,4.4-20.5c5.8,0.2,9.4,3.6,13.9,4.5
		C305.8,259.9,305.6,271,301.5,274z M324.4,262.4c-0.8,5.9-3.3,10.6-10.1,13.4c1.2-5.5,2.2-10.1,3.3-14.8l0,0c0.5-2,1.5-3.5,3.7-3.2
		C323.8,258.2,324.7,260.3,324.4,262.4z"/>
	<path class="st0" d="M337,380.5c-4.9,6.2-8.2,14.4-11.5,22c-2.7,6-8.4,10.4-10.4,18.5c23.8-13.6,40.5-57.8,28.8-75.1
		C342.5,357.9,345.4,369.7,337,380.5z"/>
	<path class="st0" d="M336.1,330.3c-2.3,1.3-4.9,2-7.5,2c-5,0.3-10,0.8-15,1.6c-8.6,1.3-13.8,0.3-18.5-7c-2.5-3.9-4.8-7.9-7.1-11.9
		c-2.5-4.1-5.6-7.5-12.3-8.5c6.4,7.3,9.1,14.8,12.1,22.2c2.3,5.5,7,8.5,12.8,9.5c4.9,0.9,9.7,0.5,14.5-0.1c9.5-1.3,19-3.6,27.9,3
		L336.1,330.3z"/>
	<path class="st0" d="M280.4,327.6c-0.5-9.6-7.4-17.2-15.3-16.8c0.5,3.9,1.6,7.1,5.3,9.8c4.2,3.1,5.5,8,2.3,13s-6.3,3.1-10.3,0.4
		c-5.5-3.9-12.7-1.8-18.6,5.7c8.8-1.9,16.3-0.6,23.7-0.5C274.6,339.4,280.7,333.6,280.4,327.6z"/>
	<path class="st0" d="M221.8,345.4c-10.4-8.1-9.3-18.9-8.2-30c-5.8,2.5-5.3,8.5-8.1,9.8c-8.3,3.6-3.4,7.5-1.4,11.6
		C209.1,340.1,212.3,346.5,221.8,345.4z"/>
	<polygon class="st0" points="204.1,336.9 204,336.8 204,336.7 204.1,336.8 	"/>
	<path class="st0" d="M226.3,382.5c10.3-0.5,19.1-2.8,28.6-6.9C245.4,368.9,237.7,370.8,226.3,382.5z"/>
	<path class="st0" d="M373,317c5.3-0.6,6.7-4.3,7-9.7c0.1,0.3,0-0.4-0.3-1c-1.1-1.9-3.3-2.8-4.6-1.5c-2.9,2.5-6.5,5-7.3,8.9
		C367.6,315,370.1,317.3,373,317z"/>
	<path class="st0" d="M324,150.4c0.4,2,0.6,4.8,3.1,4.7c2.9-0.1,2.5-3.4,3.3-4.8c-0.4-2.5-0.6-4.6-1-6.6c-0.5-2.8-2.5-4.1-5-3.4
		c-2.8,0.7-1.1,3-1,4.6C323.6,146.8,323.7,148.6,324,150.4z"/>
	<path class="st0" d="M314.1,157.9c1.4,0.4,3.2,0.2,4.6-0.3c1.8-0.6,1.4-2,0.5-3.3c-1.4-1.9,0.2-3.4,1-4.9c2-3.9-0.6-4.2-4.4-4.4
		c-2.6,1.4-2,5.3-3.6,7.8C311.6,153.7,311.6,157.1,314.1,157.9z"/>
	<path class="st0" d="M282.9,351.3c-4.3,2.6-7.1,7-11.6,9.4c-1.6,0.9-0.1,2.5,1.3,2.8c3.9,0.6,13.5-6.5,13.8-10.4
		C286.3,350.7,285.3,349.8,282.9,351.3z"/>
	<path class="st0" d="M185.3,323.4c-1.2,1.5-3.2,2.9-0.8,4.4c1.9,1.1,4.6,1.4,5.8-1.7c1.1-3,2.4-6,4.1-10.4
		C189.1,317.1,187.6,320.6,185.3,323.4z"/>
	<path class="st0" d="M326.8,328.9c-0.3-2.3-1.4-3.9-3.8-4.2c-2-0.3-4,0-3.9,2.5c0,2.4,1.7,3.6,4,3.6
		C324.7,331,326.5,331.2,326.8,328.9z"/>
	<path class="st0" d="M231.3,337.7c-0.7,0.1-1.6,0-1.9,0.5c-1.8,2.5-7.5,1.3-6.6,5.4c0.8,3.7,5.2-0.1,7.6,1.7
		C230.2,342.7,233,340.5,231.3,337.7z"/>
	<path class="st0" d="M230.3,345.2c0,0.1,0,0.1,0,0.3l0,0l0.1-0.1L230.3,345.2z"/>
	<path class="st0" d="M318.8,161c-2.5-0.9-3.9,1.3-6.3,3.6c2.8,0,4.5,2.6,6.5-0.1C319.9,163.3,320.3,161.6,318.8,161z"/>
	<path class="st0" d="M350.1,421.7c2.8-1,4.3-3.1,5.6-5.4C350.4,416.9,350.4,417,350.1,421.7z"/>
	<path class="st0" d="M356.1,415.9l-0.2,0.3c0,0,0,0,0,0.1h0.1L356.1,415.9z"/>
	<path class="st0" d="M360,199v5.4C358.1,201.6,358.1,201.5,360,199z"/>
	<path class="st0" d="M159.4,239.3c-4.6-4.3-6.6-1.8-9.1,4.2c5.3-2.6,10.6,2.3,14.4-4.1L159.4,239.3L159.4,239.3z"/>
</g>
</svg>
