<?xml version="1.0" encoding="utf-8"?>
<!-- Generator: Adobe Illustrator 23.0.6, SVG Export Plug-In . SVG Version: 6.00 Build 0)  -->
<svg version="1.1" id="Calque_1" xmlns="http://www.w3.org/2000/svg" xmlns:xlink="http://www.w3.org/1999/xlink" x="0px" y="0px"
	 viewBox="0 0 190.4 190.4" style="enable-background:new 0 0 190.4 190.4;" xml:space="preserve">
<title>Plan de travail 4 copie</title>
<g id="Calque_4">
	<path d="M97.2,39.9L97.2,39.9C97.1,39.9,97.1,39.9,97.2,39.9L97.2,39.9L97.2,39.9z"/>
	<path d="M190.3,95.5c0.4-5.5,0.2-6.2-5.1-7.3c-1.7-0.4-2.3-1.1-2.1-2.7c0.2-2.9,0.5-5.9,0.7-8.8c0.6-9.1-0.6-17.7-6.4-25.1
		c-0.8-1.1-0.8-2-0.3-3.4c1.4-3.6,4.2-6.4,5.6-10c3.3-8.5,4.8-17.4,5.5-26.4c0.2-3,0.2-6.1-0.5-9.1c-0.4-1.7-1.3-3.2-3.2-3.1
		c-2,0.1-2.3,2.1-2.4,3.4c0,3.4-0.9,6.5-1.7,9.7c-2.3,8.8-5.6,17.1-12,23.9c-3.2,3.5-3.2,3.4-7.3,1.1c-13.8-7.7-28.4-10.4-44-7.4
		c-3.7,0.7-7.2,2.2-10.7,3.6c-3.5,1.3-6.6,3.4-9.3,6c1.1,0.2,2.2,0.2,3.2-0.5c0.3,2.4,1.3,1.7,2.3,0.5c1.7-2.2,3.7-4,6.3-5.3
		c2-1,4.2-1.4,6.5-1.2c0.7,0,1.2,0.1,1.7-0.3c1.3-0.9,2.3-0.8,3,0.8c0.7,1.5,1.8,1.5,2.7,0.4c1.2-1.5,2.2-1.3,3.1,0.2
		c1.1,1.9,3,3.1,4.8,4.1c4.2,2.3,8.7,4.2,12.9,6.5s8.1,5.3,9.8,10.2c0.1,0.3,0.2,0.6,0.1,0.8c-2.3,4.2,1.1,8,0.6,12.2
		c-0.5,4.3,0.7,8.7,2.2,12.9c1.1,3.1,0.8,6.5,2.3,9.6c0.8,1.7,1.7,3.3,3.1,4.2c1.9,1.3,3,2.7,3.1,5c0,1,0.8,1.4,1.7,1.1
		c0.9-0.3,1.5-0.1,2.1,0.6c1.1,1.2,1.9,1.1,2.1-0.7c0.1-0.8,0.1-1.8,1.1-2.5c1.5,1.8,3.7,3.4,1.5,6.2c-0.8,1.1-0.2,1.9,1.1,1.9
		c1.2,0,2.3,0,3.5,0c1.1,0,1.6-0.5,1.6-1.6c0-1.9,1.2-3.1,2.4-4.3c0.5-0.5,0.8-1,1.5-0.6c0.6,0.4,0.6,1.1,0.4,1.7
		c-0.7,1.9-1,3.9-2.4,5.4c1,0.9,1.7-0.3,2.7,0.2c-0.7,2-1.7,3.2-4,2.5c-1.6-0.5-2.5,0.1-2.9,1.7c-0.3,1.1-1,2.1-1.6,3
		c-2.1,3.4-1.6,5.4,2.1,6.9c0.5,0.2,0.9,0.6,1,1.1c-0.9,0.1-1.7,0.2-2.6,0.3c-2.2,0.4-3.5,2.6-2.4,4.5c0.7,1.3,0.5,2.3-0.2,3.2
		c-1.6,2.3-1.8,5.2-3.6,7.4c-0.1,0.1-0.2,0.3-0.2,0.5c0.7,4.4-2.1,7.7-3.7,11.4c-0.6,1.5-1.3,2.8-2.8,3.7c-1.2,0.7-0.9,2.2-1,3.5
		c3.6,0.6,3.7-4.6,7.7-4.3c-2.2,3.4-5.2,5.5-7.7,7.9c-1.3,1.3-2.5,2.8-4.5,3.1c-0.1-0.5,0-1.5-0.5-1.2c-1.1,0.7-2.7-1-3.3,0.9
		c-1.7,5.1-6.6,6.8-10.6,9.2c-1.4,0.8-3.7,0.3-5.5,0.1c-1.3-0.2-0.6-1.2-0.2-1.9c1.9-4,3.9-8,5.9-12c0.2-0.5,0.4-1,0.8-1.9
		c-2.4,1.2-3.2,3.1-4.3,4.9c-0.8,1.4-1.4,2.9-2.3,4.2c-2.4,3.7-5.6,4.7-9.7,3.3c-2.6-0.9-5-2.5-8-1.7c-0.6,0.2-1-0.4-1.5-0.8
		c-2.2-1.8-4.6-2.6-7.4-1.6c-3.7,1.3-6.4-0.5-6.2-4.4c0.1-1-1-3.1,0.9-3c1.6,0.1,0.9,2.2,0.7,3.2c-0.3,2.1,0.2,2.7,2.3,2.4
		c5.2-0.8,10.1,0.4,14.9,2.4c1.8,0.7,3.6,0.9,5.5,1.3c3.5,0.7,6.5-0.5,8.4-3.4c3.8-6,8.7-11,12.8-16.8c1.8-2.5,3.7-5,3.6-8.4
		c-0.2-5.5-3.3-7.9-8.5-6.1c-1.9,0.7-4.1,1.5-5.3,3c-5.3,6.4-13,7.8-20.1,10.3c-1.2,0.4-2.6,0.5-3.9,1.6c1.3,1,2.5,1.9,2.9,3.6
		c0.3,1.3,1.2,1.1,1.9,0.3c0.5-0.5,1-1.1,1.2-1.7c0.3-1.2,0.9-1.9,2.2-1.7c1.5,0.2,2.6,1.4,2.3,2.5c-0.9,3.7,1.6,3.9,4,4.4
		c0.3,0.1,0.5,0.2,0.7,0.3c0.1,0,0.1,0.1,0.3,0.4c-2.6,1.6-1.8,4.7-2.7,7.3c-1.3-0.6-1.2-1.5-1.1-2.5c0.2-1.1,0.3-2.1,0.3-3.2
		c0-0.6,0-1.4-0.8-1.4c-0.7,0-1.9-0.2-1.9,0.9c-0.1,1.4-1,1.8-2,2.2c-0.8,0.4-1.3,0.8-1.4,1.7c0,0.6,0.5,1.6-0.7,1.6
		c-0.8,0-1.4-0.4-1.7-1.2c-0.9-2.8-3.3-4.9-3.7-7.8c-0.2-2.1-2.7-2.5-2.9-5.1c-0.7,1.6-2,2.1-2.1,3.6c-0.2,1.7-1.7,1.2-2.7,1.3
		c-0.2,0-0.7-0.5-0.6-0.7c0-1,0.6,0.1,0.8-0.2c0.9-1.2,0.4-2-0.8-2.8c-1.4-1-2.8-2-2.9-4.2c-0.1-1.2,1-1.3,1-2.3
		c0.3,1.4,1.1,2,2.4,1.7c1.3-0.3,1.1-1.2,1.2-2.3c0.1-1.8,0.4-3.5,0.8-5.2c0.4-1.4,0.7-3,2.6-3.4c0.9-0.2,1.4-1,1.7-2
		c-0.8-0.6-1.3,0.4-2,0.2c-2.8,2.8-6.3,2.5-8.5-0.6c-0.6-0.9-1.1-1.8-1.7-2.7c-1.9-2-4.3-1.8-6.7-1.6c-2.5,0.2-4.7,0-6.4-2.1
		c-1.5-1.8-1.6-7.2-0.1-9c0.4-0.5,0.9-1,0.5-1.6c-0.4-0.7-1.2-0.6-1.7-0.3c-1,0.6-1.6,0.1-2.5-0.3c-1.7-0.9-2.7-0.1-3.2,1.7
		c-1,3.6,0.5,5.9,3.2,8.1c1.6,1.3,2.8,3.2,2.5,5.5l-0.8,0.6l2.5,2.3c-1.8,0.2-3.6,0.8-5.2,1.6c-0.4-1.9-1.4-3.6-0.2-5.4
		c0.8-1.2,0-2-0.7-2.5c-2.1-1.4-3.3-3.5-4.8-5.3c-1.9-2.3-1.3-5-0.8-7.7c0.1-0.5,0.4-1,0.6-1.5c0.4-1.1,0.5-2.6,1.7-2.8
		c1.4-0.3,1.7,1.2,2.4,2.1c0.9,1.2,2.3,0.9,3.4,0.8c3.8-0.5,7.1,0.9,10.4,2.5c0.8,0.4,1.7,0.6,1.5,1.9c-1.1,0.5-3.4-1.6-3.5,1.4
		c0,1.1,0.1,1.6,1.3,1.1c1.8-0.7,3.9-0.5,5.4-1.9c0.5-0.4,1.1-0.6,1.9-0.1c-0.3,0.8-0.7,1.5-1.3,2.1c-0.6,0.6-0.4,1.6,0.2,2.1
		c0.6,0.4,1.1-0.2,1.5-0.8c1.7-2.5,3.9-4.8,4.9-7.5c1.1-3,1.3-6.4,1.6-9.7c0.3-3.1,0.4-6.2,0.3-9.3c-0.1-2.3-1.9-4.2-2-6.7
		c0-1.3,0.2-2.8-0.5-4.2c-1.5,0.7-1.3,2.2-1.9,3.2c-0.5,0.3-1,0.1-1.2-0.2c-2.1-2.2-2.1-2.1-3.8,0.6c-1.3,2.1-2.7,4.1-4.2,6.1
		c-0.7,0.8-1.6,1.4-2.6,1.8c-4.8,1.5-9.7,2.3-14.8,1.5c-1.9-0.3-2.3-1.3-1.5-2.8c1.9-3.4,2.2-7.1,2.1-10.9c0-0.9,0.2-1.8,0.7-2.5
		c0.1-0.2,1.6-1.5-0.5-1.3c-0.5,0.1-0.2-1.4,0.3-1.6c1-0.4,2.4-0.4,1.1-2c2-1.5,1.3-3.7,1.4-5.6c0.1-1.9,0.8-3.8,1.9-5.4
		c1.4-2,1.9-4.1,2.7-6.3c0-0.1,0-0.2,0-0.3c3.4-1.5,2.2-5,3.3-7.5c0.7-1.8,0.2-4,2.2-5.2c1.6-0.8,3.4-1.5,4-3.4
		c-1.7,0.7-3.3,1.5-4.3,3.1c-0.6,0.3-1.3,0.6-1.8,1c-1.4,1.4-2.8,1.2-4.3,0.2c-4.5-2.8-8.6-6-12.4-9.6c-2.3-2.1-4.7-4.2-6.5-6.7
		c-5.1-7-10-14.1-13.9-21.9c-0.5-1-0.9-2.4-2.5-1.9c-1.3,0.5-1.3,1.8-1.2,3c0.3,2.7,1.1,5.2,1.9,7.8c3.1,9.4,7.2,18.2,13,26.3
		c3.9,5.4,8.5,10.3,13.3,15c0.9,0.9,1.8,1.8,1.3,3.2c-2.4,7.1-2,14.2-1,21.5c0.5,3.3,0.4,6.6-1.3,9.7c-0.6,1-1.2,1.8-2.7,1.7
		c-2-0.1-3.2,1.1-3.2,3.1c0,3.9-0.4,8,1.6,11.6s2,7.3,1.8,11.2c-0.2,3.5-1.2,6.9-0.4,10.4c0.6,3,2.2,4.3,4.9,4.3
		c3.7,0,3.9,0,3.7,3.8c-0.3,5,1,9.3,3.8,13.4c1.9,2.7,2.9,5.9,3.9,9c2.1,6.1,3.1,12.4,4.3,18.8c1.7,9.1,5.1,11.8,13.7,12.5
		c3.9,0.3,7.9-0.1,11.8,0c5.4,0.2,9.7-2.1,13.7-5.2c4.3-3.4,8.4-7.1,12.9-10.2c8.4-5.9,16.9-11.7,24.5-18.6c3-2.7,4.6-6.1,4.6-10.2
		c0-2.3-0.2-4.6-0.4-7c-0.1-1.8,0.2-3.4,1.6-4.6c1.3-1.1,2.6-2.1,4-3.1c5.3-3.4,6.1-5.6,4.3-11.6c-1.1-3.8-1.1-7.5,0.7-11
		C188.7,104.6,189.9,100.2,190.3,95.5z M154.9,51.9c-2-1.7-3.8-3.8-5.1-6.2l0,0c0.9,0.7,1.8,1.4,2.8,2c0.7,0.5,1.4,1.4,2.4,0.7
		C154.4,49.6,155.6,50.7,154.9,51.9L154.9,51.9z M156.6,71.6c-0.3-2-1.4-4-0.3-6.1C157,67.5,156.9,69.6,156.6,71.6L156.6,71.6z
		 M155.9,59.5c0.4,0.9,0.6,1.8,0.1,2.9C154.9,61.4,155.6,60.5,155.9,59.5L155.9,59.5z M155.1,48.4c0.4-1.4,0.8-2.9,3.2-1.8
		C156.9,46.9,157.7,50.2,155.1,48.4z M160,87.7c1.4,1.3,3.2,2.2,3.6,4.4C161.3,91.6,160.4,89.9,160,87.7L160,87.7z M166,87.5
		c-3.7-0.7-7.4-7.2-7.3-13.1c1.2,1,0.7,2.7,1.9,3.4c0.9-0.6-0.1-1.3,0.1-1.9c0.4-0.9,0.8-2.3,2-0.6c2.9,1.7,1.6,4.6,1.8,6.9
		c0.1,1.2-0.2,2.2,0.8,3.1C165.9,85.8,166.2,86.7,166,87.5L166,87.5z M134.4,158.5c1.2,0.9,0.8,1.7,0,2.6V158.5z M132.8,146.2
		c0.6,0.5,0.8,0.6,0.8,0.7c0.2,1.3,0.7,2.6-0.2,3.9c-0.2,0.2-0.5,0.3-0.8,0.1c-0.1,0-0.1-0.1-0.1-0.2
		C131.5,149.2,132.1,147.8,132.8,146.2L132.8,146.2z M112.8,154.9c0.1-0.5,0.6-0.9,1.2-0.9c0.4,0,0.6,0.3,0.4,0.7
		c-0.2,0.5-0.4,1-0.6,1C112.8,155.6,112.7,155.3,112.8,154.9z M112,159c0.1-1.3,1-1.5,2.3-1.1c-0.7,0.8-0.1,2.3-1.7,2.4
		C112.2,160.3,112,159.6,112,159z M95.5,97.3c0.6-0.4,0.9-0.6,1.3-0.9c3-1.8,3.5-1.6,4.7,1.7c0.4,1,0.7,1.9,1.7,2.6
		c1.4,1.1,1.2,2.5-0.3,3.5c-2.3,1.4-4.5,2.8-7.7,3.1C97.8,104,100.3,100.7,95.5,97.3z M83.1,99.1c1.4,1.6,0.6,3.6,1.2,5.3
		C82.4,103,82.7,101,83.1,99.1z M76.8,47.4c-1.5-0.8-1-2.7-2.2-3.7c-4.5-3.8-8.4-8.2-10.8-13.9c1.2-0.2,2.2,0.7,2.3,1.2
		c1,3,4.2,3.6,5.9,5.8c0.8,1,2.1,1.6,1.9,3.3c-0.1,0.9,1,1.3,1.6,1.7c2.7,1.8,4.8,4.3,7.6,6.1c1.4,1,2.1,3.1,4.6,2.9
		c-1.4,1.7-2.2,3.6-4.2,5.1c0.2-2.2,0.2-3.5-1.8-4.7C80,50.3,78.7,48.4,76.8,47.4z M76.7,95.7c4.4,1.6,3.1,6.1,4.8,9
		c-1.3-0.1-1.4-0.1-1.7-1.3c-0.6-2.2-1.5-4.3-3.1-5.9C76,96.8,76.3,96.3,76.7,95.7z M103,148.9c1.2,0.6,2.1,1.5,2.8,2.6
		c0.4,0.7,0.9,1.4,0.5,2.2c-0.3,0.6-0.8,0.7-1.4,0.5c-0.9-0.3-2-0.3-2.3-1.5C102.4,151.5,102.2,150.3,103,148.9L103,148.9z
		 M101.4,160.1c0-0.2,0.2-0.4,0.4-0.6c0.6,1.5,1.3,3.3-0.7,3.9c-1.9,0.5-3.4-0.2-3.9-2.4c-0.3-1.5-0.5-3-1.3-4.3
		c-0.3-0.5-0.5-1,0-1.5c0.6-0.5,1.1,0,1.7,0.3c1,0.6,1.4,1.6,1.5,2.7c0.1,0.7,0.2,1.4,0.3,2.1c0.2,0.7,0.3,1.6,1.1,1.6
		C101.6,161.7,101.3,160.7,101.4,160.1L101.4,160.1z M100.1,150c-1.2-0.5-2-1.4-3.1-1.8C98.4,148,100.4,146.6,100.1,150L100.1,150z
		 M88.6,150.2c-2.9-3-4.7-6.3-4.3-11.4c1.4,2.9,3,4.9,3.5,7.4c0.2,1.2,0.6,2.2,1.8,2.7c0.1,0.8,1.2,0.3,1.3,1.1
		C90.2,150.7,89.4,150.9,88.6,150.2L88.6,150.2z M89.7,148.9c-0.5-2.7-1.1-5.3-1.6-8c-0.3-1.7-0.7-3.4,1.3-5.1
		c0,3.7,2.2,6.3,2.6,9.4C92.1,147.1,91.7,148.5,89.7,148.9L89.7,148.9z M93.4,129.8c1-0.3,1.4,0.7,1.8,1.6c1,2.7,1.8,5.4,3.3,7.9
		c0.6,0.9,0.2,1.9-0.7,2.3c-1.2,0.6-1.1,1.4-0.6,2.6c-2.6-0.6-3.5-1.9-3.3-4.1c0.3-2.7-0.5-5.3-1.4-7.9
		C92.2,131.1,92.3,130.1,93.4,129.8z M94.9,167.4c-1.4-1.2-1.6-2.9-1.7-4.6c-0.1-0.7,0.2-1.6,1.2-1.4c1.7,0.4,0,0.9-0.1,1.4
		c-0.1,1.4,0.9,3,3.3,4.7C96.4,168.7,95.6,168.1,94.9,167.4z M98.9,173.9c-2.2-0.9-1.7-3.1-2.5-4.6
		C97.5,170.7,99.4,171.6,98.9,173.9z M118.9,186.3c-3.4-1.3-7.1-1.7-10.3-3.4c-2.6-1.4-4.2,1-6.1,1.9c-0.9,0.4-1.7,1.6-2.8,0.7
		c-1.1-0.9-2.4-1.7-1.7-3.5c0.2-0.4,0.1-0.9,0.2-1.3c0.3-1.1-0.8-2.9,0.4-3.1c1.4-0.2,3.1,0.6,4.2,1.8c1.7,1.8,3,1.6,3.9-0.7
		c0.8-1.8,1.5-3.6,2.2-5.4c1-2.7,2.9-2.7,4.9-2.2c2.9,0.7,5.8,1.3,8.5,2.7l0,0c0.4,1,1,0.8,1.9,0.8c1.4,0,2.8-0.9,4.4,0.5
		c-1.5,0.4-2.4,1.3-2.6,2.9c-0.2,1.7-1.8,1.8-2.9,1.7c-2.6-0.3-5.3-0.7-7.4-2.7c-0.8-0.8-1.6-1.4-2.8-1.5c-0.8-0.1-1.7-0.4-2.2,0.5
		c-0.4,0.9,0.2,1.5,0.7,2.1c4,5,10.8,6.6,16.9,3.9c1.6-0.7,3-1.8,5-1.6C130.9,184.4,125.9,188.8,118.9,186.3L118.9,186.3z
		 M179.3,116.3c0.4,0.5,1.2,0.8,1,1.6c-0.1,0.2-0.8,0.5-1.1,0.4C177.8,117.6,179.2,117,179.3,116.3z M178.1,127.4
		c-0.6,0-1.1,0-1.1-0.7c0-0.8,0.6-1,1.3-0.9c0.5,0,1.2,0,1.2,0.7C179.4,127.2,178.7,127.3,178.1,127.4z M180.7,121.9
		c-0.1,0.1-0.5,0.3-0.6,0.2c-0.2-0.2-0.2-0.4-0.2-0.6c0-0.3,0.2-0.4,0.6-0.3C180.7,121.3,180.8,121.6,180.7,121.9
		C180.7,121.9,180.7,121.9,180.7,121.9L180.7,121.9z M185.8,92.8c-4.4-0.4-7,2.2-9.6,5.9c0.1-4.3,3.1-6,5.3-8.1
		c1.3-1.2,3.1-0.1,4.6-0.5c0.5-0.1,0.7,0.6,0.6,1.2C186.7,92.1,186.6,92.9,185.8,92.8L185.8,92.8z"/>
	<path d="M116.2,91.4c0.2,0.5,1.9,0,0.9,1.3c-0.9,1.2-0.5,2.5-0.3,3.9c-0.3,0.2-0.6,0.5-0.3,0.8c0.4,0.3,0.6,0,0.7-0.4
		c0.8,2.9-0.2,6,1.7,8.9c-0.8,0.4-2.2-0.4-2.2,1.1c0,0.5-0.5,1.2,0.2,1.4c2.6,0.9,3.9,3.3,5.2,5.2c1.5,2.1,2.5,1.8,4.2,1
		c4-1.8,7.8-3.9,12.1-4.7c7-1.2,13.8-2.9,20.5-5.5c0.4-0.2,0.9-0.3,0.9-0.8s-0.4-0.7-0.8-0.9c-1.4-0.8-2.5-0.6-3.6,0.6
		c-0.8,0.9-2,1.4-3.1,0.8c-1.2-0.7-0.3-1.8-0.1-2.7c0.4-1.7,0.7-3.4,2.1-4.7c1.4-1.3,0.5-3.3-1.3-3.1c-3.9,0.3-7.6-0.5-11.5-0.3
		c-10.2,0.5-19.8-0.7-26.8-9.3c-0.9-1.1-2.2-2.2-4.4-0.7C113.8,84.9,115.1,88.1,116.2,91.4z M146.3,99.3c0.2-0.8,0.6-1.3,1.4-1.2
		c1,0.1,1.3,0.9,1.2,1.8c-0.3,2.3-1.2,4.1-3.9,5.2C145.5,102.8,145.8,101,146.3,99.3L146.3,99.3z M133.1,104.7
		c2.2-2.2,2.5-4.8,1.7-7.9c2.2,0.1,3.6,1.4,5.4,1.7c1.6,0.3,1.5,4.6-0.1,5.7c-1.8,1.3-4,1.9-6.2,2.1
		C132.5,106.5,132.3,105.5,133.1,104.7L133.1,104.7z"/>
	<path d="M153.7,145.3c-1.9,2.4-3.2,5.5-4.5,8.5c-1,2.3-3.2,4-4,7.1c9.2-5.3,15.6-22.3,11.1-29C155.9,136.6,157,141.2,153.7,145.3z"
		/>
	<path d="M153.4,126c-0.9,0.5-1.9,0.8-2.9,0.8c-1.9,0.1-3.9,0.3-5.8,0.6c-3.3,0.5-5.3,0.1-7.1-2.7c-1-1.5-1.8-3.1-2.8-4.6
		c-1-1.6-2.2-2.9-4.7-3.3c2.5,2.8,3.5,5.7,4.7,8.6c0.9,2.1,2.7,3.3,4.9,3.7c1.9,0.3,3.7,0.2,5.6,0c3.7-0.5,7.3-1.4,10.7,1.2
		L153.4,126z"/>
	<path d="M131.9,124.9c-0.2-3.7-2.8-6.6-5.9-6.5c0.2,1.5,0.6,2.7,2,3.8c1.6,1.2,2.1,3.1,0.9,5c-1.2,1.9-2.4,1.2-4,0.2
		c-2.1-1.5-4.9-0.7-7.2,2.2c3.4-0.7,6.3-0.2,9.1-0.2C129.7,129.5,132,127.3,131.9,124.9z"/>
	<path d="M109.3,131.8c-4-3.1-3.6-7.3-3.2-11.5c-2.2,1-2,3.3-3.1,3.8c-3.2,1.4-1.3,2.9-0.5,4.5C104.4,129.7,105.7,132.2,109.3,131.8
		z"/>
	<path d="M102.5,128.5L102.5,128.5L102.5,128.5L102.5,128.5L102.5,128.5z"/>
	<path d="M111.1,146.1c4-0.2,7.3-1.1,11-2.6C118.4,140.8,115.5,141.6,111.1,146.1z"/>
	<path d="M167.6,120.8c2-0.3,2.6-1.6,2.7-3.7c0,0.1,0-0.2-0.1-0.4c-0.4-0.7-1.3-1.1-1.8-0.6c-1.1,1-2.5,1.9-2.8,3.4
		C165.6,120.1,166.5,121,167.6,120.8z"/>
	<path d="M148.8,56.6c0.1,0.8,0.3,1.8,1.2,1.8c1.1,0,1-1.3,1.3-1.9c-0.1-1-0.2-1.8-0.4-2.5c-0.2-1.1-1-1.6-1.9-1.3
		c-1.1,0.3-0.4,1.2-0.4,1.8C148.6,55.2,148.6,55.9,148.8,56.6z"/>
	<path d="M144.9,59.5c0.5,0.2,1.2,0.1,1.8-0.1c0.7-0.2,0.5-0.8,0.2-1.3c-0.5-0.8,0.1-1.3,0.4-1.9c0.8-1.5-0.3-1.6-1.7-1.7
		c-1,0.5-0.8,2-1.4,3C144,57.9,144,59.2,144.9,59.5z"/>
	<path d="M132.9,134.1c-1.7,1-2.7,2.7-4.5,3.6c-0.6,0.3-0.1,1,0.5,1.1c1.5,0.3,5.2-2.5,5.3-4C134.2,133.8,133.8,133.5,132.9,134.1z"
		/>
	<path d="M95.3,123.3c-0.5,0.6-1.2,1.1-0.3,1.7c0.7,0.4,1.8,0.5,2.2-0.7c0.4-1.2,0.9-2.3,1.6-4C96.7,120.9,96.2,122.2,95.3,123.3z"
		/>
	<path d="M149.8,125.4c-0.1-0.9-0.5-1.5-1.4-1.6c-0.8-0.1-1.5,0-1.5,1c0,0.9,0.6,1.4,1.6,1.4C149,126.2,149.7,126.3,149.8,125.4z"/>
	<path d="M113,128.8c-0.3,0.1-0.6,0-0.7,0.2c-0.7,1-2.9,0.5-2.6,2.1c0.3,1.4,2,0,2.9,0.7C112.6,130.7,113.7,129.9,113,128.8z"/>
	<path d="M112.6,131.7c0,0,0,0.1,0,0.1l0,0L112.6,131.7L112.6,131.7z"/>
	<path d="M146.7,60.7c-1-0.4-1.5,0.5-2.4,1.4c1.1,0,1.7,1,2.5-0.1C147.2,61.6,147.3,60.9,146.7,60.7z"/>
	<path d="M158.8,161.2c1.1-0.4,1.7-1.2,2.2-2.1C158.9,159.4,158.9,159.4,158.8,161.2z"/>
	<path d="M122,115.5c-0.1-0.1-0.2-0.1-0.4-0.2c-0.1,0.2-0.2,0.4-0.2,0.6l0.4,0.2C122,115.9,122.2,115.7,122,115.5z"/>
	<path d="M86.8,128c-0.6,0.6,0.2,1,0.6,1.3l0.8-0.6C88,128.1,87.6,127.4,86.8,128z"/>
	<path d="M154.5,92.9c-0.1-0.1-0.1-0.2-0.2-0.2c-0.1,0-0.1,0.1-0.2,0.1c0.1,0.1,0.2,0.2,0.3,0.2C154.4,93.1,154.4,93,154.5,92.9z"/>
	<polygon points="152.8,92.7 152.7,92.8 152.8,92.9 	"/>
	<path d="M161.1,159l-0.1,0.1c0,0,0,0,0,0h0.1L161.1,159z"/>
	<path d="M162.6,75.3L162.6,75.3L162.6,75.3L162.6,75.3L162.6,75.3z"/>
	<path d="M162.6,77.4v-2.1C161.9,76.3,161.9,76.3,162.6,77.4z"/>
	<path d="M161.5,79.9l0.1,0.1l0.5,1.2l0,0l-0.5-1.2L161.5,79.9z"/>
	<path d="M85.3,90.9c-1.8-1.7-2.5-0.7-3.5,1.6c2-1,4.1,0.9,5.5-1.6L85.3,90.9L85.3,90.9z"/>
</g>
</svg>
